<svg width="175" height="56" viewBox="0 0 175 56" fill="none" xmlns="http://www.w3.org/2000/svg">
<path d="M0 8C0 3.58172 3.58172 0 8 0H167C171.418 0 175 3.58172 175 8V48C175 52.4183 171.418 56 167 56H8C3.58172 56 0 52.4183 0 48V8Z" fill="white"/>
<path d="M42.896 28.224H45.264V32.768C44.656 33.2267 43.952 33.5787 43.152 33.824C42.352 34.0693 41.5467 34.192 40.736 34.192C39.5733 34.192 38.528 33.9467 37.6 33.456C36.672 32.9547 35.9413 32.2667 35.408 31.392C34.8853 30.5067 34.624 29.5093 34.624 28.4C34.624 27.2907 34.8853 26.2987 35.408 25.424C35.9413 24.5387 36.6773 23.8507 37.616 23.36C38.5547 22.8587 39.6107 22.608 40.784 22.608C41.7653 22.608 42.656 22.7733 43.456 23.104C44.256 23.4347 44.928 23.9147 45.472 24.544L43.808 26.08C43.008 25.2373 42.0427 24.816 40.912 24.816C40.1973 24.816 39.5627 24.9653 39.008 25.264C38.4533 25.5627 38.0213 25.984 37.712 26.528C37.4027 27.072 37.248 27.696 37.248 28.4C37.248 29.0933 37.4027 29.712 37.712 30.256C38.0213 30.8 38.448 31.2267 38.992 31.536C39.5467 31.8347 40.176 31.984 40.88 31.984C41.6267 31.984 42.2987 31.824 42.896 31.504V28.224ZM56.3438 31.92V34H47.6718V22.8H56.1358V24.88H50.2478V27.312H55.4478V29.328H50.2478V31.92H56.3438ZM60.7261 24.912H57.1421V22.8H66.9021V24.912H63.3181V34H60.7261V24.912ZM75.148 24.912H71.564V22.8H81.324V24.912H77.74V34H75.148V24.912ZM82.7186 22.8H85.3106V34H82.7186V22.8ZM93.3286 34.192C92.1873 34.192 91.1526 33.9467 90.2246 33.456C89.3073 32.9547 88.582 32.2667 88.0486 31.392C87.526 30.5067 87.2646 29.5093 87.2646 28.4C87.2646 27.2907 87.526 26.2987 88.0486 25.424C88.582 24.5387 89.3073 23.8507 90.2246 23.36C91.1526 22.8587 92.1926 22.608 93.3446 22.608C94.3153 22.608 95.19 22.7787 95.9686 23.12C96.758 23.4613 97.4193 23.952 97.9526 24.592L96.2886 26.128C95.5313 25.2533 94.5926 24.816 93.4726 24.816C92.7793 24.816 92.1606 24.9707 91.6166 25.28C91.0726 25.5787 90.646 26 90.3366 26.544C90.038 27.088 89.8886 27.7067 89.8886 28.4C89.8886 29.0933 90.038 29.712 90.3366 30.256C90.646 30.8 91.0726 31.2267 91.6166 31.536C92.1606 31.8347 92.7793 31.984 93.4726 31.984C94.5926 31.984 95.5313 31.5413 96.2886 30.656L97.9526 32.192C97.4193 32.8427 96.758 33.3387 95.9686 33.68C95.1793 34.0213 94.2993 34.192 93.3286 34.192ZM103.783 29.6L102.279 31.168V34H99.703V22.8H102.279V28.032L107.239 22.8H110.119L105.479 27.792L110.391 34H107.367L103.783 29.6ZM120.219 31.92V34H111.547V22.8H120.011V24.88H114.123V27.312H119.323V29.328H114.123V31.92H120.219ZM124.601 24.912H121.017V22.8H130.777V24.912H127.193V34H124.601V24.912ZM135.774 34.192C134.888 34.192 134.03 34.0747 133.198 33.84C132.376 33.5947 131.715 33.28 131.214 32.896L132.094 30.944C132.574 31.296 133.144 31.5787 133.806 31.792C134.467 32.0053 135.128 32.112 135.79 32.112C136.526 32.112 137.07 32.0053 137.422 31.792C137.774 31.568 137.95 31.2747 137.95 30.912C137.95 30.6453 137.843 30.4267 137.63 30.256C137.427 30.0747 137.16 29.9307 136.83 29.824C136.51 29.7173 136.072 29.6 135.518 29.472C134.664 29.2693 133.966 29.0667 133.422 28.864C132.878 28.6613 132.408 28.336 132.014 27.888C131.63 27.44 131.438 26.8427 131.438 26.096C131.438 25.4453 131.614 24.8587 131.966 24.336C132.318 23.8027 132.846 23.3813 133.55 23.072C134.264 22.7627 135.134 22.608 136.158 22.608C136.872 22.608 137.571 22.6933 138.254 22.864C138.936 23.0347 139.534 23.28 140.046 23.6L139.246 25.568C138.211 24.9813 137.176 24.688 136.142 24.688C135.416 24.688 134.878 24.8053 134.526 25.04C134.184 25.2747 134.014 25.584 134.014 25.968C134.014 26.352 134.211 26.64 134.606 26.832C135.011 27.0133 135.624 27.1947 136.446 27.376C137.299 27.5787 137.998 27.7813 138.542 27.984C139.086 28.1867 139.55 28.5067 139.934 28.944C140.328 29.3813 140.526 29.9733 140.526 30.72C140.526 31.36 140.344 31.9467 139.982 32.48C139.63 33.0027 139.096 33.4187 138.382 33.728C137.667 34.0373 136.798 34.192 135.774 34.192Z" fill="#381DDB"/>
</svg>
